<svg width="568" height="41" viewBox="0 0 568 41" fill="none" xmlns="http://www.w3.org/2000/svg">
<path d="M0.0999756 20.6099C0.0999756 9.07143 9.00107 0.5 20.4296 0.5C28.8912 0.5 34.4956 4.56593 37.7923 10.5L27.2428 16.6538C25.8143 13.9066 23.8362 12.0385 20.3198 12.0385C16.034 12.0385 13.1769 15.7747 13.1769 20.3901V20.5C13.1769 25.4451 16.1439 28.9615 20.3198 28.9615C23.9461 28.9615 25.9242 26.9835 27.5725 24.1264L38.122 30.0604C34.9351 35.7747 29.4406 40.3901 19.9901 40.3901C9.33075 40.3901 0.0999756 32.478 0.0999756 20.6099Z" fill="#D81F26"/>
<path d="M83.1769 1.26929H101.858C108.671 1.26929 112.957 2.91764 115.594 5.66489C117.902 7.97258 119.111 10.8297 119.111 14.7858V14.8957C119.111 20.5001 116.254 24.3462 111.529 26.6539L120.43 39.6209H105.814L98.5615 28.6319H98.4516H95.8142V39.6209H83.1769V1.26929ZM101.529 19.511C104.605 19.511 106.474 18.1924 106.474 15.7748V15.6649C106.474 13.2473 104.605 12.0385 101.638 12.0385H96.034V19.511H101.529Z" fill="#D81F26"/>
<path d="M122.298 1.26929H135.594L143.836 14.6759L152.078 1.26929H165.375V39.6209H152.627V20.6099L143.836 34.2363H143.616L134.825 20.6099V39.6209H122.298V1.26929V1.26929Z" fill="#D81F26"/>
<path d="M169.77 1.26929H202.408V11.8187H182.408V15.6649H201.089V24.8957H182.408V29.0715H202.737V39.6209H169.77V1.26929Z" fill="#D81F26"/>
<path d="M206.144 1.26929H218.122L231.748 18.1924V1.26929H244.496V39.6209H233.067L218.891 21.9286V39.6209H206.144V1.26929Z" fill="#D81F26"/>
<path d="M65.4846 1.04956H52.7373L36.5835 39.621H50.2099L59.111 16.8737L63.7264 28.8518H56.3637L68.0121 39.621H81.6384L65.4846 1.04956Z" fill="#D81F26"/>
<path d="M267.792 33.7969L274.605 25.6651C278.781 28.8519 283.507 30.1705 288.012 30.1705C290.32 30.1705 291.309 29.6211 291.309 28.5222V28.4123C291.309 27.3134 290.1 26.764 286.034 25.8848C277.463 24.1266 269.88 21.709 269.88 13.5771V13.4672C269.88 6.2145 275.594 0.610107 286.144 0.610107C293.616 0.610107 299.001 2.36835 303.397 5.88483L297.133 14.5662C293.507 11.9288 289.221 10.8299 285.594 10.8299C283.726 10.8299 282.847 11.4892 282.847 12.3683V12.4782C282.847 13.4673 283.836 14.2365 287.902 14.8958C297.682 16.6541 304.276 19.6211 304.276 27.3134V27.4233C304.276 35.4453 297.682 40.3903 287.353 40.3903C279.66 40.2804 272.627 38.1925 267.792 33.7969Z" fill="#D81F26"/>
<path d="M348.671 1.26929H360.649L374.276 18.1924V1.26929H386.913V39.6209H375.485L361.309 21.9286V39.6209H348.562V1.26929H348.671Z" fill="#D81F26"/>
<path d="M391.309 1.26929H405.924C421.089 1.26929 428.781 8.74181 428.781 20.0605V20.1704C428.781 31.599 420.979 39.511 405.485 39.511H391.309V1.26929V1.26929ZM406.254 28.4121C412.188 28.4121 415.924 25.9946 415.924 20.5001V20.3902C415.924 14.8957 412.188 12.4781 406.254 12.4781H404.166V28.4121H406.254V28.4121Z" fill="#D81F26"/>
<path d="M431.089 1.26929H443.946V39.6209H431.199V1.26929H431.089Z" fill="#D81F26"/>
<path d="M448.342 1.26929H480.979V11.8187H460.869V15.6649H479.551V24.8957H460.869V29.0715H481.309V39.6209H448.342V1.26929Z" fill="#D81F26"/>
<path d="M503.397 18.6319L510.32 25.1154V29.0714C509.331 29.6209 508.122 29.9505 505.924 29.9505C500.539 29.9505 496.803 26.3242 496.803 20.8297V20.7198C496.803 15.5549 500.32 11.7088 505.375 11.7088C508.561 11.7088 511.309 12.9176 513.836 15.0055L520.979 6.32417C516.803 2.6978 511.529 0.5 504.935 0.5C492.847 0.5 483.836 9.07143 483.836 20.5V20.6099C483.836 32.478 493.397 40.5 505.375 40.5C512.408 40.5 518.122 38.1923 522.298 34.7857V18.6319H503.397Z" fill="#D81F26"/>
<path d="M525.155 20.6099C525.155 9.4011 534.276 0.5 546.144 0.5C558.012 0.5 567.023 9.18132 567.023 20.3901V20.5C567.023 31.5989 557.902 40.5 546.034 40.5C534.166 40.3901 525.155 31.7088 525.155 20.6099ZM554.056 20.6099C554.056 15.9945 550.979 11.8187 546.034 11.8187C541.199 11.8187 538.122 15.8846 538.122 20.3901V20.5C538.122 25.0055 541.199 29.1813 546.144 29.1813C550.979 29.0714 554.056 25.0055 554.056 20.6099Z" fill="#D81F26"/>
<path d="M331.638 1.04956H318.891L302.737 39.621H316.364L325.265 16.8737L329.88 28.8518H322.518L334.056 39.621H347.682L331.638 1.04956Z" fill="#D81F26"/>
</svg>
