<?xml version="1.0" encoding="utf-8"?>
<!-- Generator: Adobe Illustrator 22.1.0, SVG Export Plug-In . SVG Version: 6.00 Build 0)  -->
<svg version="1.1" id="Layer_3" xmlns="http://www.w3.org/2000/svg" xmlns:xlink="http://www.w3.org/1999/xlink" x="0px" y="0px"
	 viewBox="0 0 1400 1400" enable-background="new 0 0 1400 1400" xml:space="preserve">
<circle fill="#3D66F9" cx="675" cy="185" r="3"/>
<circle fill="#3D66F9" cx="685" cy="135" r="3"/>
<circle fill="#3D66F9" cx="625" cy="155" r="3"/>
<circle fill="#3D66F9" cx="785" cy="155" r="3"/>
<circle fill="#3D66F9" cx="725" cy="175" r="3"/>
<circle fill="#3D66F9" cx="775" cy="265" r="3"/>
<circle fill="#3D66F9" cx="725" cy="305" r="3"/>
<circle fill="#3D66F9" cx="735" cy="255" r="3"/>
<circle fill="#3D66F9" cx="805" cy="325" r="3"/>
<circle fill="#3D66F9" cx="775" cy="305" r="3"/>
<circle fill="#3D66F9" cx="865" cy="315" r="3"/>
<circle fill="#3D66F9" cx="905" cy="365" r="3"/>
<circle fill="#3D66F9" cx="965" cy="355" r="3"/>
<circle fill="#3D66F9" cx="1015" cy="375" r="3"/>
<circle fill="#3D66F9" cx="985" cy="405" r="3"/>
<circle fill="#3D66F9" cx="885" cy="425" r="3"/>
<circle fill="#3D66F9" cx="925" cy="445" r="3"/>
<circle fill="#3D66F9" cx="945" cy="415" r="3"/>
<circle fill="#3D66F9" cx="855" cy="485" r="3"/>
<circle fill="#3D66F9" cx="805" cy="495" r="3"/>
<circle fill="#3D66F9" cx="745" cy="505" r="3"/>
<circle fill="#3D66F9" cx="715" cy="515" r="3"/>
<circle fill="#3D66F9" cx="765" cy="475" r="3"/>
<circle fill="#3D66F9" stroke="#000000" stroke-width="0.25" stroke-miterlimit="10" cx="1025" cy="435" r="3"/>
<circle fill="#3D66F9" stroke="#000000" stroke-width="0.25" stroke-miterlimit="10" cx="1065" cy="425" r="3"/>
<circle fill="#3D66F9" cx="945" cy="325" r="3"/>
<circle fill="#3D66F9" cx="875" cy="275" r="3"/>
<circle fill="#3D66F9" cx="875" cy="195" r="3"/>
<circle fill="#3D66F9" cx="855" cy="125" r="3"/>
<circle fill="#3D66F9" cx="815" cy="165" r="3"/>
<circle fill="#3D66F9" cx="795" cy="55" r="3"/>
<circle fill="#3D66F9" cx="755" cy="35" r="3"/>
<circle fill="#3D66F9" cx="775" cy="5" r="3"/>
<circle fill="#3D66F9" cx="755" cy="115" r="3"/>
<circle fill="#3D66F9" cx="815" cy="105" r="3"/>
<circle fill="#3D66F9" cx="855" cy="15" r="3"/>
<circle fill="#3D66F9" cx="875" cy="85" r="3"/>
<circle fill="#3D66F9" cx="935" cy="155" r="3"/>
<circle fill="#3D66F9" cx="1005" cy="265" r="3"/>
<circle fill="#3D66F9" cx="1025" cy="195" r="3"/>
<circle fill="#3D66F9" cx="965" cy="215" r="3"/>
<circle fill="#3D66F9" cx="995" cy="145" r="3"/>
<circle fill="#3D66F9" cx="965" cy="45" r="3"/>
<circle fill="#3D66F9" cx="1025" cy="35" r="3"/>
<circle fill="#3D66F9" cx="905" cy="25" r="3"/>
<circle fill="#3D66F9" cx="915" cy="105" r="3"/>
<circle fill="#3D66F9" cx="1045" cy="55" r="3"/>
<circle fill="#3D66F9" cx="1075" cy="85" r="3"/>
<circle fill="#3D66F9" cx="1095" cy="25" r="3"/>
<circle fill="#3D66F9" cx="1055" cy="115" r="3"/>
<circle fill="#3D66F9" cx="985" cy="95" r="3"/>
<circle fill="#3D66F9" cx="975" cy="125" r="3"/>
<circle fill="#3D66F9" cx="1125" cy="85" r="3"/>
<circle fill="#3D66F9" cx="1165" cy="125" r="3"/>
<circle fill="#3D66F9" cx="1105" cy="155" r="3"/>
<circle fill="#3D66F9" cx="1085" cy="245" r="3"/>
<circle fill="#3D66F9" cx="1085" cy="335" r="3"/>
<circle fill="#3D66F9" cx="1135" cy="305" r="3"/>
<circle fill="#3D66F9" cx="1095" cy="285" r="3"/>
<circle fill="#3D66F9" cx="1175" cy="385" r="3"/>
<circle fill="#3D66F9" cx="1235" cy="375" r="3"/>
<circle fill="#3D66F9" cx="1185" cy="445" r="3"/>
<circle fill="#3D66F9" cx="1245" cy="425" r="3"/>
<circle fill="#3D66F9" cx="1345" cy="435" r="3"/>
<circle fill="#3D66F9" cx="1335" cy="465" r="3"/>
<circle fill="#3D66F9" cx="1305" cy="415" r="3"/>
<circle fill="#3D66F9" cx="1375" cy="505" r="3"/>
<circle fill="#3D66F9" cx="1335" cy="545" r="3"/>
<circle fill="#3D66F9" cx="1345" cy="605" r="3"/>
<circle fill="#3D66F9" cx="1255" cy="595" r="3"/>
<circle fill="#3D66F9" cx="1315" cy="585" r="3"/>
<circle fill="#3D66F9" cx="1305" cy="615" r="3"/>
<circle fill="#3D66F9" cx="1305" cy="535" r="3"/>
<circle fill="#3D66F9" cx="1245" cy="515" r="3"/>
<circle fill="#3D66F9" cx="1225" cy="555" r="3"/>
<circle fill="#3D66F9" cx="1225" cy="655" r="3"/>
<circle fill="#3D66F9" cx="1235" cy="755" r="3"/>
<circle fill="#3D66F9" cx="1295" cy="715" r="3"/>
<circle fill="#3D66F9" cx="1355" cy="705" r="3"/>
<circle fill="#3D66F9" cx="1315" cy="745" r="3"/>
<circle fill="#3D66F9" cx="1345" cy="785" r="3"/>
<circle fill="#3D66F9" cx="1285" cy="765" r="3"/>
<circle fill="#3D66F9" cx="1335" cy="855" r="3"/>
<circle fill="#3D66F9" cx="1275" cy="845" r="3"/>
<circle fill="#3D66F9" cx="1335" cy="835" r="3"/>
<circle fill="#3D66F9" cx="1215" cy="825" r="3"/>
<circle fill="#3D66F9" cx="1255" cy="865" r="3"/>
<circle fill="#3D66F9" cx="1195" cy="885" r="3"/>
<circle fill="#3D66F9" cx="1295" cy="925" r="3"/>
<circle fill="#3D66F9" cx="1235" cy="935" r="3"/>
<circle fill="#3D66F9" cx="1195" cy="975" r="3"/>
<circle fill="#3D66F9" cx="1385" cy="945" r="3"/>
<circle fill="#3D66F9" cx="1345" cy="925" r="3"/>
<circle fill="#3D66F9" cx="1365" cy="1005" r="3"/>
<circle fill="#3D66F9" cx="1355" cy="1115" r="3"/>
<circle fill="#3D66F9" cx="1295" cy="1075" r="3"/>
<circle fill="#3D66F9" cx="1305" cy="975" r="3"/>
<circle fill="#3D66F9" cx="1265" cy="1015" r="3"/>
<circle fill="#3D66F9" cx="1345" cy="1015" r="3"/>
<circle fill="#3D66F9" cx="1305" cy="1055" r="3"/>
<circle fill="#3D66F9" cx="1225" cy="1095" r="3"/>
<circle fill="#3D66F9" cx="1235" cy="995" r="3"/>
<circle fill="#3D66F9" cx="1225" cy="1195" r="3"/>
<circle fill="#3D66F9" cx="1215" cy="1225" r="3"/>
<circle fill="#3D66F9" cx="1165" cy="1175" r="3"/>
<circle fill="#3D66F9" cx="1275" cy="1145" r="3"/>
<circle fill="#3D66F9" cx="1265" cy="1175" r="3"/>
<circle fill="#3D66F9" cx="1335" cy="1135" r="3"/>
<circle fill="#3D66F9" cx="1315" cy="1185" r="3"/>
<circle fill="#3D66F9" cx="1345" cy="1225" r="3"/>
<circle fill="#3D66F9" cx="1335" cy="1255" r="3"/>
<circle fill="#3D66F9" cx="1275" cy="1245" r="3"/>
<circle fill="#3D66F9" cx="1395" cy="715" r="3"/>
<circle fill="#3D66F9" cx="1385" cy="745" r="3"/>
<circle fill="#3D66F9" cx="1355" cy="655" r="3"/>
<circle fill="#3D66F9" cx="1285" cy="665" r="3"/>
<circle fill="#3D66F9" cx="1275" cy="695" r="3"/>
<circle fill="#3D66F9" cx="1275" cy="465" r="3"/>
<circle fill="#3D66F9" cx="1305" cy="495" r="3"/>
<circle fill="#3D66F9" cx="1205" cy="515" r="3"/>
<circle fill="#3D66F9" cx="1095" cy="565" r="3"/>
<circle fill="#3D66F9" cx="1085" cy="605" r="3"/>
<circle fill="#3D66F9" cx="1135" cy="535" r="3"/>
<circle fill="#3D66F9" cx="1045" cy="615" r="3"/>
<circle fill="#3D66F9" cx="965" cy="635" r="3"/>
<circle fill="#3D66F9" cx="1015" cy="645" r="3"/>
<circle fill="#3D66F9" cx="975" cy="685" r="3"/>
<circle fill="#3D66F9" cx="1035" cy="705" r="3"/>
<circle fill="#3D66F9" cx="1105" cy="725" r="3"/>
<circle fill="#3D66F9" cx="1155" cy="735" r="3"/>
<circle fill="#3D66F9" cx="1085" cy="765" r="3"/>
<circle fill="#3D66F9" cx="1105" cy="825" r="3"/>
<circle fill="#3D66F9" cx="1145" cy="815" r="3"/>
<circle fill="#3D66F9" cx="1105" cy="905" r="3"/>
<circle fill="#3D66F9" cx="1055" cy="925" r="3"/>
<circle fill="#3D66F9" cx="995" cy="965" r="3"/>
<circle fill="#3D66F9" cx="1065" cy="675" r="3"/>
<circle fill="#3D66F9" cx="1105" cy="655" r="3"/>
<circle fill="#3D66F9" cx="1145" cy="615" r="3"/>
<circle fill="#3D66F9" cx="1165" cy="685" r="3"/>
<circle fill="#3D66F9" cx="985" cy="585" r="3"/>
<circle fill="#3D66F9" cx="1275" cy="375" r="3"/>
<circle fill="#3D66F9" cx="1335" cy="365" r="3"/>
<circle fill="#3D66F9" cx="1385" cy="345" r="3"/>
<circle fill="#3D66F9" cx="1375" cy="375" r="3"/>
<circle fill="#3D66F9" cx="1335" cy="305" r="3"/>
<circle fill="#3D66F9" cx="1275" cy="285" r="3"/>
<circle fill="#3D66F9" cx="1215" cy="265" r="3"/>
<circle fill="#3D66F9" cx="1175" cy="245" r="3"/>
<circle fill="#3D66F9" cx="1235" cy="235" r="3"/>
<circle fill="#3D66F9" cx="1225" cy="325" r="3"/>
<circle fill="#3D66F9" cx="1285" cy="315" r="3"/>
<circle fill="#3D66F9" cx="1185" cy="305" r="3"/>
<circle fill="#3D66F9" cx="1145" cy="345" r="3"/>
<circle fill="#3D66F9" cx="1155" cy="215" r="3"/>
<circle fill="#3D66F9" cx="1095" cy="195" r="3"/>
<circle fill="#3D66F9" cx="1055" cy="175" r="3"/>
<circle fill="#3D66F9" cx="1195" cy="125" r="3"/>
<circle fill="#3D66F9" cx="1235" cy="35" r="3"/>
<circle fill="#3D66F9" cx="1175" cy="15" r="3"/>
<circle fill="#3D66F9" cx="1135" cy="55" r="3"/>
<circle fill="#3D66F9" cx="1295" cy="25" r="3"/>
<circle fill="#3D66F9" cx="1265" cy="85" r="3"/>
<circle fill="#3D66F9" cx="1325" cy="75" r="3"/>
<circle fill="#3D66F9" cx="1225" cy="65" r="3"/>
<circle fill="#3D66F9" cx="1325" cy="155" r="3"/>
<circle fill="#3D66F9" cx="1285" cy="195" r="3"/>
<circle fill="#3D66F9" cx="1365" cy="195" r="3"/>
<circle fill="#3D66F9" cx="1265" cy="135" r="3"/>
<circle fill="#3D66F9" cx="1285" cy="225" r="3"/>
<circle fill="#3D66F9" cx="1365" cy="255" r="3"/>
<circle fill="#3D66F9" cx="1325" cy="235" r="3"/>
<circle fill="#3D66F9" cx="1225" cy="185" r="3"/>
<circle fill="#3D66F9" cx="1185" cy="165" r="3"/>
<circle fill="#3D66F9" cx="1355" cy="105" r="3"/>
<circle fill="#3D66F9" cx="1385" cy="55" r="3"/>
<circle fill="#3D66F9" cx="715" cy="75" r="3"/>
<circle fill="#3D66F9" cx="655" cy="95" r="3"/>
<circle fill="#3D66F9" cx="675" cy="35" r="3"/>
<circle fill="#3D66F9" cx="665" cy="65" r="3"/>
<circle fill="#3D66F9" cx="395" cy="265" r="3"/>
<circle fill="#3D66F9" cx="335" cy="245" r="3"/>
<circle fill="#3D66F9" cx="395" cy="235" r="3"/>
<circle fill="#3D66F9" cx="415" cy="185" r="3"/>
<circle fill="#3D66F9" cx="455" cy="75" r="3"/>
<circle fill="#3D66F9" cx="395" cy="45" r="3"/>
<circle fill="#3D66F9" cx="375" cy="95" r="3"/>
<circle fill="#3D66F9" cx="345" cy="15" r="3"/>
<circle fill="#3D66F9" cx="535" cy="15" r="3"/>
<circle fill="#3D66F9" cx="415" cy="125" r="3"/>
<circle fill="#3D66F9" cx="375" cy="165" r="3"/>
<circle fill="#3D66F9" cx="345" cy="265" r="3"/>
<circle fill="#3D66F9" cx="355" cy="325" r="3"/>
<circle fill="#3D66F9" cx="295" cy="305" r="3"/>
<circle fill="#3D66F9" cx="315" cy="205" r="3"/>
<circle fill="#3D66F9" cx="275" cy="245" r="3"/>
<circle fill="#3D66F9" cx="265" cy="175" r="3"/>
<circle fill="#3D66F9" cx="255" cy="205" r="3"/>
<circle fill="#3D66F9" cx="335" cy="155" r="3"/>
<circle fill="#3D66F9" cx="305" cy="85" r="3"/>
<circle fill="#3D66F9" cx="285" cy="35" r="3"/>
<circle fill="#3D66F9" cx="225" cy="75" r="3"/>
<circle fill="#3D66F9" cx="215" cy="125" r="3"/>
<circle fill="#3D66F9" cx="275" cy="115" r="3"/>
<circle fill="#3D66F9" cx="205" cy="25" r="3"/>
<circle fill="#3D66F9" cx="145" cy="105" r="3"/>
<circle fill="#3D66F9" cx="235" cy="255" r="3"/>
<circle fill="#3D66F9" cx="195" cy="195" r="3"/>
<circle fill="#3D66F9" cx="155" cy="175" r="3"/>
<circle fill="#3D66F9" cx="185" cy="255" r="3"/>
<circle fill="#3D66F9" cx="75" cy="125" r="3"/>
<circle fill="#3D66F9" cx="55" cy="65" r="3"/>
<circle fill="#3D66F9" cx="75" cy="15" r="3"/>
<circle fill="#3D66F9" cx="25" cy="5" r="3"/>
<circle fill="#3D66F9" cx="165" cy="305" r="3"/>
<circle fill="#3D66F9" cx="125" cy="235" r="3"/>
<circle fill="#3D66F9" cx="75" cy="275" r="3"/>
<circle fill="#3D66F9" cx="105" cy="305" r="3"/>
<circle fill="#3D66F9" cx="35" cy="215" r="3"/>
<circle fill="#3D66F9" cx="95" cy="205" r="3"/>
<circle fill="#3D66F9" cx="255" cy="385" r="3"/>
<circle fill="#3D66F9" cx="215" cy="425" r="3"/>
<circle fill="#3D66F9" cx="275" cy="345" r="3"/>
<circle fill="#3D66F9" cx="245" cy="305" r="3"/>
<circle fill="#3D66F9" cx="255" cy="445" r="3"/>
<circle fill="#3D66F9" cx="395" cy="445" r="3"/>
<circle fill="#3D66F9" cx="435" cy="405" r="3"/>
<circle fill="#3D66F9" cx="485" cy="415" r="3"/>
<circle fill="#3D66F9" cx="535" cy="405" r="3"/>
<circle fill="#3D66F9" cx="525" cy="335" r="3"/>
<circle fill="#3D66F9" cx="455" cy="345" r="3"/>
<circle fill="#3D66F9" cx="485" cy="315" r="3"/>
<circle fill="#3D66F9" cx="535" cy="285" r="3"/>
<circle fill="#3D66F9" cx="405" cy="375" r="3"/>
<circle fill="#3D66F9" cx="575" cy="345" r="3"/>
<circle fill="#3D66F9" cx="515" cy="375" r="3"/>
<circle fill="#3D66F9" cx="605" cy="285" r="3"/>
<circle fill="#3D66F9" cx="655" cy="305" r="3"/>
<circle fill="#3D66F9" cx="645" cy="335" r="3"/>
<circle fill="#3D66F9" cx="695" cy="265" r="3"/>
<circle fill="#3D66F9" cx="445" cy="485" r="3"/>
<circle fill="#3D66F9" cx="505" cy="475" r="3"/>
<circle fill="#3D66F9" cx="585" cy="505" r="3"/>
<circle fill="#3D66F9" cx="665" cy="535" r="3"/>
<circle fill="#3D66F9" cx="675" cy="655" r="3"/>
<circle fill="#3D66F9" cx="645" cy="695" r="3"/>
<circle fill="#3D66F9" cx="615" cy="735" r="3"/>
<circle fill="#3D66F9" cx="595" cy="705" r="3"/>
<circle fill="#3D66F9" cx="545" cy="715" r="3"/>
<circle fill="#3D66F9" cx="565" cy="765" r="3"/>
<circle fill="#3D66F9" cx="605" cy="855" r="3"/>
<circle fill="#3D66F9" cx="535" cy="875" r="3"/>
<circle fill="#3D66F9" cx="465" cy="895" r="3"/>
<circle fill="#3D66F9" cx="495" cy="955" r="3"/>
<circle fill="#3D66F9" cx="545" cy="935" r="3"/>
<circle fill="#3D66F9" cx="635" cy="915" r="3"/>
<circle fill="#3D66F9" cx="635" cy="985" r="3"/>
<circle fill="#3D66F9" cx="585" cy="955" r="3"/>
<circle fill="#3D66F9" cx="595" cy="885" r="3"/>
<circle fill="#3D66F9" cx="555" cy="1005" r="3"/>
<circle fill="#3D66F9" cx="545" cy="1095" r="3"/>
<circle fill="#3D66F9" cx="485" cy="1065" r="3"/>
<circle fill="#3D66F9" cx="475" cy="1165" r="3"/>
<circle fill="#3D66F9" cx="395" cy="1145" r="3"/>
<circle fill="#3D66F9" cx="335" cy="1105" r="3"/>
<circle fill="#3D66F9" cx="425" cy="1205" r="3"/>
<circle fill="#3D66F9" cx="385" cy="1185" r="3"/>
<circle fill="#3D66F9" cx="465" cy="1245" r="3"/>
<circle fill="#3D66F9" cx="395" cy="1245" r="3"/>
<circle fill="#3D66F9" cx="495" cy="1215" r="3"/>
<circle fill="#3D66F9" cx="465" cy="1305" r="3"/>
<circle fill="#3D66F9" cx="405" cy="1285" r="3"/>
<circle fill="#3D66F9" cx="585" cy="1205" r="3"/>
<circle fill="#3D66F9" cx="625" cy="1245" r="3"/>
<circle fill="#3D66F9" cx="615" cy="1275" r="3"/>
<circle fill="#3D66F9" cx="595" cy="1255" r="3"/>
<circle fill="#3D66F9" cx="555" cy="1235" r="3"/>
<circle fill="#3D66F9" cx="625" cy="1335" r="3"/>
<circle fill="#3D66F9" cx="685" cy="1325" r="3"/>
<circle fill="#3D66F9" cx="565" cy="1315" r="3"/>
<circle fill="#3D66F9" cx="545" cy="1355" r="3"/>
<circle fill="#3D66F9" cx="505" cy="1335" r="3"/>
<circle fill="#3D66F9" cx="595" cy="1385" r="3"/>
<circle fill="#3D66F9" cx="525" cy="1285" r="3"/>
<circle fill="#3D66F9" cx="695" cy="1355" r="3"/>
<circle fill="#3D66F9" cx="685" cy="1385" r="3"/>
<circle fill="#3D66F9" cx="785" cy="1395" r="3"/>
<circle fill="#3D66F9" cx="745" cy="1375" r="3"/>
<circle fill="#3D66F9" cx="875" cy="1345" r="3"/>
<circle fill="#3D66F9" cx="865" cy="1375" r="3"/>
<circle fill="#3D66F9" cx="835" cy="1325" r="3"/>
<circle fill="#3D66F9" cx="915" cy="1385" r="3"/>
<circle fill="#3D66F9" cx="905" cy="1305" r="3"/>
<circle fill="#3D66F9" cx="795" cy="1335" r="3"/>
<circle fill="#3D66F9" cx="855" cy="1265" r="3"/>
<circle fill="#3D66F9" cx="815" cy="1215" r="3"/>
<circle fill="#3D66F9" cx="775" cy="1255" r="3"/>
<circle fill="#3D66F9" cx="895" cy="1185" r="3"/>
<circle fill="#3D66F9" cx="885" cy="1215" r="3"/>
<circle fill="#3D66F9" cx="975" cy="1155" r="3"/>
<circle fill="#3D66F9" cx="935" cy="1225" r="3"/>
<circle fill="#3D66F9" cx="965" cy="1305" r="3"/>
<circle fill="#3D66F9" cx="955" cy="1335" r="3"/>
<circle fill="#3D66F9" cx="925" cy="1285" r="3"/>
<circle fill="#3D66F9" cx="995" cy="1355" r="3"/>
<circle fill="#3D66F9" cx="1055" cy="1345" r="3"/>
<circle fill="#3D66F9" cx="1065" cy="1375" r="3"/>
<circle fill="#3D66F9" cx="1155" cy="1385" r="3"/>
<circle fill="#3D66F9" cx="1125" cy="1335" r="3"/>
<circle fill="#3D66F9" cx="1135" cy="1275" r="3"/>
<circle fill="#3D66F9" cx="1045" cy="1305" r="3"/>
<circle fill="#3D66F9" cx="1075" cy="1255" r="3"/>
<circle fill="#3D66F9" cx="995" cy="1245" r="3"/>
<circle fill="#3D66F9" cx="1025" cy="1175" r="3"/>
<circle fill="#3D66F9" cx="1125" cy="1145" r="3"/>
<circle fill="#3D66F9" cx="1185" cy="1135" r="3"/>
<circle fill="#3D66F9" cx="1065" cy="1115" r="3"/>
<circle fill="#3D66F9" cx="1055" cy="1145" r="3"/>
<circle fill="#3D66F9" cx="1105" cy="1065" r="3"/>
<circle fill="#3D66F9" cx="1165" cy="1055" r="3"/>
<circle fill="#3D66F9" cx="1165" cy="965" r="3"/>
<circle fill="#3D66F9" cx="1125" cy="1005" r="3"/>
<circle fill="#3D66F9" cx="1185" cy="1045" r="3"/>
<circle fill="#3D66F9" cx="1245" cy="1035" r="3"/>
<circle fill="#3D66F9" cx="1165" cy="1105" r="3"/>
<circle fill="#3D66F9" cx="1135" cy="1215" r="3"/>
<circle fill="#3D66F9" cx="1075" cy="1195" r="3"/>
<circle fill="#3D66F9" cx="1065" cy="1225" r="3"/>
<circle fill="#3D66F9" cx="1185" cy="1265" r="3"/>
<circle fill="#3D66F9" cx="1245" cy="1255" r="3"/>
<circle fill="#3D66F9" cx="1275" cy="1305" r="3"/>
<circle fill="#3D66F9" cx="1235" cy="1285" r="3"/>
<circle fill="#3D66F9" cx="1365" cy="1315" r="3"/>
<circle fill="#3D66F9" cx="1325" cy="1355" r="3"/>
<circle fill="#3D66F9" cx="1305" cy="1295" r="3"/>
<circle fill="#3D66F9" cx="1345" cy="1385" r="3"/>
<circle fill="#3D66F9" cx="1245" cy="1355" r="3"/>
<circle fill="#3D66F9" cx="1185" cy="1335" r="3"/>
<circle fill="#3D66F9" cx="765" cy="1285" r="3"/>
<circle fill="#3D66F9" cx="725" cy="1225" r="3"/>
<circle fill="#3D66F9" cx="685" cy="1285" r="3"/>
<circle fill="#3D66F9" cx="715" cy="1315" r="3"/>
<circle fill="#3D66F9" cx="405" cy="1335" r="3"/>
<circle fill="#3D66F9" cx="445" cy="1375" r="3"/>
<circle fill="#3D66F9" cx="335" cy="1295" r="3"/>
<circle fill="#3D66F9" cx="275" cy="1275" r="3"/>
<circle fill="#3D66F9" cx="295" cy="1365" r="3"/>
<circle fill="#3D66F9" cx="225" cy="1385" r="3"/>
<circle fill="#3D66F9" cx="435" cy="1395" r="3"/>
<circle fill="#3D66F9" cx="375" cy="1375" r="3"/>
<circle fill="#3D66F9" cx="325" cy="1225" r="3"/>
<circle fill="#3D66F9" cx="255" cy="1175" r="3"/>
<circle fill="#3D66F9" cx="205" cy="1145" r="3"/>
<circle fill="#3D66F9" cx="165" cy="1185" r="3"/>
<circle fill="#3D66F9" cx="165" cy="1125" r="3"/>
<circle fill="#3D66F9" cx="175" cy="1215" r="3"/>
<circle fill="#3D66F9" cx="85" cy="1225" r="3"/>
<circle fill="#3D66F9" cx="135" cy="1145" r="3"/>
<circle fill="#3D66F9" cx="85" cy="1115" r="3"/>
<circle fill="#3D66F9" cx="145" cy="1105" r="3"/>
<circle fill="#3D66F9" cx="15" cy="1115" r="3"/>
<circle fill="#3D66F9" cx="35" cy="1195" r="3"/>
<circle fill="#3D66F9" cx="75" cy="1175" r="3"/>
<circle fill="#3D66F9" cx="75" cy="1285" r="3"/>
<circle fill="#3D66F9" cx="35" cy="1265" r="3"/>
<circle fill="#3D66F9" cx="45" cy="1335" r="3"/>
<circle fill="#3D66F9" cx="5" cy="1385" r="3"/>
<circle fill="#3D66F9" cx="65" cy="1375" r="3"/>
<circle fill="#3D66F9" cx="125" cy="1355" r="3"/>
<circle fill="#3D66F9" cx="135" cy="1295" r="3"/>
<circle fill="#3D66F9" cx="195" cy="1285" r="3"/>
<circle fill="#3D66F9" cx="195" cy="1325" r="3"/>
<circle fill="#3D66F9" cx="185" cy="1355" r="3"/>
<circle fill="#3D66F9" cx="255" cy="1305" r="3"/>
<circle fill="#3D66F9" cx="235" cy="1255" r="3"/>
<circle fill="#3D66F9" cx="135" cy="1245" r="3"/>
<circle fill="#3D66F9" cx="615" cy="1055" r="3"/>
<circle fill="#3D66F9" cx="595" cy="1025" r="3"/>
<circle fill="#3D66F9" cx="625" cy="1135" r="3"/>
<circle fill="#3D66F9" cx="665" cy="835" r="3"/>
<circle fill="#3D66F9" cx="685" cy="915" r="3"/>
<circle fill="#3D66F9" cx="715" cy="885" r="3"/>
<circle fill="#3D66F9" cx="775" cy="845" r="3"/>
<circle fill="#3D66F9" cx="835" cy="805" r="3"/>
<circle fill="#3D66F9" cx="885" cy="765" r="3"/>
<circle fill="#3D66F9" cx="845" cy="755" r="3"/>
<circle fill="#3D66F9" cx="895" cy="875" r="3"/>
<circle fill="#3D66F9" cx="875" cy="905" r="3"/>
<circle fill="#3D66F9" cx="845" cy="845" r="3"/>
<circle fill="#3D66F9" cx="945" cy="895" r="3"/>
<circle fill="#3D66F9" cx="805" cy="885" r="3"/>
<circle fill="#3D66F9" cx="795" cy="995" r="3"/>
<circle fill="#3D66F9" cx="835" cy="945" r="3"/>
<circle fill="#3D66F9" cx="895" cy="965" r="3"/>
<circle fill="#3D66F9" cx="905" cy="1045" r="3"/>
<circle fill="#3D66F9" cx="845" cy="1035" r="3"/>
<circle fill="#3D66F9" cx="765" cy="1105" r="3"/>
<circle fill="#3D66F9" cx="785" cy="1145" r="3"/>
<circle fill="#3D66F9" cx="825" cy="1095" r="3"/>
<circle fill="#3D66F9" cx="885" cy="1115" r="3"/>
<circle fill="#3D66F9" cx="965" cy="1065" r="3"/>
<circle fill="#3D66F9" cx="1005" cy="1035" r="3"/>
<circle fill="#3D66F9" cx="765" cy="765" r="3"/>
<circle fill="#3D66F9" cx="725" cy="815" r="3"/>
<circle fill="#3D66F9" cx="615" cy="795" r="3"/>
<circle fill="#3D66F9" cx="755" cy="685" r="3"/>
<circle fill="#3D66F9" cx="785" cy="725" r="3"/>
<circle fill="#3D66F9" cx="845" cy="715" r="3"/>
<circle fill="#3D66F9" cx="715" cy="635" r="3"/>
<circle fill="#3D66F9" cx="815" cy="625" r="3"/>
<circle fill="#3D66F9" cx="685" cy="775" r="3"/>
<circle fill="#3D66F9" cx="705" cy="705" r="3"/>
<circle fill="#3D66F9" cx="645" cy="755" r="3"/>
<circle fill="#3D66F9" cx="655" cy="495" r="3"/>
<circle fill="#3D66F9" cx="365" cy="515" r="3"/>
<circle fill="#3D66F9" cx="305" cy="525" r="3"/>
<circle fill="#3D66F9" cx="335" cy="465" r="3"/>
<circle fill="#3D66F9" cx="165" cy="435" r="3"/>
<circle fill="#3D66F9" cx="125" cy="475" r="3"/>
<circle fill="#3D66F9" cx="185" cy="375" r="3"/>
<circle fill="#3D66F9" cx="145" cy="355" r="3"/>
<circle fill="#3D66F9" cx="105" cy="395" r="3"/>
<circle fill="#3D66F9" cx="85" cy="335" r="3"/>
<circle fill="#3D66F9" cx="45" cy="375" r="3"/>
<circle fill="#3D66F9" cx="45" cy="315" r="3"/>
<circle fill="#3D66F9" cx="15" cy="345" r="3"/>
<circle fill="#3D66F9" cx="75" cy="455" r="3"/>
<circle fill="#3D66F9" cx="25" cy="415" r="3"/>
<circle fill="#3D66F9" cx="105" cy="575" r="3"/>
<circle fill="#3D66F9" cx="75" cy="515" r="3"/>
<circle fill="#3D66F9" cx="35" cy="555" r="3"/>
<circle fill="#3D66F9" cx="15" cy="495" r="3"/>
<circle fill="#3D66F9" cx="35" cy="595" r="3"/>
<circle fill="#3D66F9" cx="165" cy="555" r="3"/>
<circle fill="#3D66F9" cx="265" cy="615" r="3"/>
<circle fill="#3D66F9" cx="365" cy="675" r="3"/>
<circle fill="#3D66F9" cx="415" cy="635" r="3"/>
<circle fill="#3D66F9" cx="345" cy="635" r="3"/>
<circle fill="#3D66F9" cx="315" cy="685" r="3"/>
<circle fill="#3D66F9" cx="285" cy="725" r="3"/>
<circle fill="#3D66F9" cx="165" cy="685" r="3"/>
<circle fill="#3D66F9" cx="155" cy="595" r="3"/>
<circle fill="#3D66F9" cx="145" cy="625" r="3"/>
<circle fill="#3D66F9" cx="195" cy="775" r="3"/>
<circle fill="#3D66F9" cx="155" cy="815" r="3"/>
<circle fill="#3D66F9" cx="175" cy="855" r="3"/>
<circle fill="#3D66F9" cx="135" cy="895" r="3"/>
<circle fill="#3D66F9" cx="225" cy="905" r="3"/>
<circle fill="#3D66F9" cx="245" cy="1015" r="3"/>
<circle fill="#3D66F9" cx="275" cy="1045" r="3"/>
<circle fill="#3D66F9" cx="195" cy="985" r="3"/>
<circle fill="#3D66F9" cx="185" cy="1015" r="3"/>
<circle fill="#3D66F9" cx="325" cy="1045" r="3"/>
<circle fill="#3D66F9" cx="265" cy="1095" r="3"/>
<circle fill="#3D66F9" cx="205" cy="1075" r="3"/>
<circle fill="#3D66F9" cx="145" cy="1045" r="3"/>
<circle fill="#3D66F9" cx="75" cy="1065" r="3"/>
<circle fill="#3D66F9" cx="315" cy="1175" r="3"/>
<circle fill="#3D66F9" cx="275" cy="1215" r="3"/>
<circle fill="#3D66F9" cx="275" cy="1155" r="3"/>
<circle fill="#3D66F9" cx="95" cy="995" r="3"/>
<circle fill="#3D66F9" cx="155" cy="985" r="3"/>
<circle fill="#3D66F9" cx="35" cy="1035" r="3"/>
<circle fill="#3D66F9" cx="35" cy="965" r="3"/>
<circle fill="#3D66F9" cx="25" cy="995" r="3"/>
<circle fill="#3D66F9" cx="95" cy="955" r="3"/>
<circle fill="#3D66F9" cx="195" cy="935" r="3"/>
<circle fill="#3D66F9" cx="125" cy="925" r="3"/>
<circle fill="#3D66F9" cx="65" cy="895" r="3"/>
<circle fill="#3D66F9" cx="25" cy="935" r="3"/>
<circle fill="#3D66F9" cx="125" cy="835" r="3"/>
<circle fill="#3D66F9" cx="125" cy="765" r="3"/>
<circle fill="#3D66F9" cx="65" cy="725" r="3"/>
<circle fill="#3D66F9" cx="125" cy="715" r="3"/>
<circle fill="#3D66F9" cx="15" cy="685" r="3"/>
<circle fill="#3D66F9" cx="75" cy="675" r="3"/>
<circle fill="#3D66F9" cx="35" cy="785" r="3"/>
<circle fill="#3D66F9" cx="5" cy="845" r="3"/>
<circle fill="#3D66F9" cx="55" cy="825" r="3"/>
<circle fill="#3D66F9" cx="115" cy="815" r="3"/>
<circle fill="#3D66F9" cx="105" cy="665" r="3"/>
<circle fill="#3D66F9" cx="75" cy="635" r="3"/>
<circle fill="#3D66F9" cx="325" cy="755" r="3"/>
<circle fill="#3D66F9" cx="205" cy="515" r="3"/>
<circle fill="#3D66F9" cx="145" cy="495" r="3"/>
<circle fill="#3D66F9" cx="25" cy="115" r="3"/>
<circle fill="#3D66F9" cx="65" cy="155" r="3"/>
<circle fill="#3D66F9" cx="145" cy="45" r="3"/>
<circle fill="#3D66F9" cx="105" cy="85" r="3"/>
<circle fill="#3D66F9" cx="585" cy="45" r="3"/>
<circle fill="#3D66F9" cx="595" cy="85" r="3"/>
<circle fill="#3D66F9" cx="585" cy="115" r="3"/>
<circle fill="#3D66F9" cx="515" cy="75" r="3"/>
<circle fill="#3D66F9" cx="475" cy="55" r="3"/>
<circle fill="#3D66F9" cx="575" cy="185" r="3"/>
<circle fill="#3D66F9" cx="555" cy="205" r="3"/>
<circle fill="#3D66F9" cx="485" cy="215" r="3"/>
<circle fill="#3D66F9" cx="535" cy="135" r="3"/>
<circle fill="#3D66F9" cx="495" cy="115" r="3"/>
<circle fill="#3D66F9" cx="475" cy="165" r="3"/>
</svg>
