<svg width="149" height="40" viewBox="0 0 149 40" fill="none" xmlns="http://www.w3.org/2000/svg">
<g clip-path="url(#clip0)">
<path d="M20.3515 37.4217C18.125 37.8127 15.8594 37.9299 13.5157 38.2421L6.36709 17.3048V39.1407C4.14061 39.375 2.1094 39.6875 0 40V0H5.93766L14.0625 22.6957V0H20.3515V37.4217ZM32.6563 14.6484C35.0783 14.6484 38.7892 14.5312 41.0157 14.5312V20.7811C38.2421 20.7811 35.0001 20.7811 32.6563 20.8983V30.1953C36.3283 29.961 40.0001 29.6483 43.7109 29.531V35.5463L26.4061 36.9138V0H43.7109V6.25001H32.6563V14.6484V14.6484ZM66.953 6.25015H60.4687V35.0001C58.3593 35.0001 56.2499 35.0001 54.219 35.078V6.25015H47.7347V0H66.9533L66.953 6.25015V6.25015ZM77.1092 14.2189H85.664V20.4687H77.1092V34.6486H70.976V0H88.4375V6.25001H77.1092V14.2189V14.2189ZM98.5936 29.1797C102.148 29.2576 105.742 29.5315 109.219 29.7265V35.8984C103.633 35.5466 98.0468 35.1955 92.3438 35.078V0H98.5936V29.1797ZM114.492 36.3281C116.484 36.4455 118.594 36.5627 120.625 36.7967V0H114.492V36.3281V36.3281ZM148.008 0L140.078 19.0235L148.008 40C145.664 39.6875 143.32 39.2578 140.976 38.8671L136.484 27.3049L131.914 37.9299C129.648 37.5389 127.461 37.4217 125.196 37.1092L133.243 18.7889L125.977 0H132.695L136.797 10.5078L141.172 0H148.008V0Z" fill="#D81F26"/>
</g>
<defs>
<clipPath id="clip0">
<rect width="148.008" height="40" fill="white"/>
</clipPath>
</defs>
</svg>
